<?xml version="1.0" encoding="UTF-8"?>
<svg width="383px" height="172px" viewBox="0 0 383 172" version="1.1" xmlns="http://www.w3.org/2000/svg" xmlns:xlink="http://www.w3.org/1999/xlink">
    <!-- Generator: Sketch 53.2 (72643) - https://sketchapp.com -->
    <title>bizi logo</title>
    <desc>Created with Sketch.</desc>
    <g id="bizi" stroke="none" stroke-width="1" fill="none" fill-rule="evenodd">
        <g id="Desktop-HD" transform="translate(-474.000000, -164.000000)" fill-rule="nonzero">
            <g id="bizi-logo" transform="translate(474.000000, 164.000000)">
                <g id="Group-3">
                    <path d="M39.5266904,51.1624073 L39.5266904,55.4624073 L42.252669,59.0457406 C49.4291932,65.446971 56.0169749,70.2247488 62.0160142,73.379074 C68.0150536,76.5333991 76.8744842,79.8778436 88.594306,83.4124073 C88.5358822,89.2924708 89.2173768,93.3535819 90.63879,95.5957406 C92.0602032,97.8378993 95.0133468,99.5101215 99.4982206,100.612407 C104.572577,101.1341 108.207216,100.656322 110.402135,99.179074 C112.597055,97.7018262 114.641539,94.3573817 116.535587,89.1457406 L133.572954,93.4457406 L0,145.045741 C3.24550559,147.409894 5.74431936,148.843227 7.49644128,149.345741 C9.24856321,149.848254 11.747377,149.848254 14.9928826,149.345741 L189.455516,104.912407 L273.279359,128.562407 L299.176157,140.745741 L303.265125,161.529074 C305.411973,164.459981 307.229292,166.516956 308.717082,167.7 C310.204871,168.883044 312.47652,170.077488 315.532028,171.283333 L317.576512,142.895741 L340.747331,140.745741 L333.25089,125.695741 L370.051601,95.5957406 C364.643798,94.4051656 360.55483,93.6884989 357.784698,93.4457406 C355.014565,93.2029823 350.925597,93.2029823 345.517794,93.4457406 L306.672598,116.379074 L293.292465,108.012722 L281.457295,100.612407 L267.827402,99.179074 L281.457295,116.379074 L277.368327,116.379074 L223.530249,95.5957406 L383,3.14574062 C381.500418,1.60672811 379.910263,0.651172555 378.229537,0.279073952 C376.548811,-0.0930246507 373.822833,-0.0930246507 370.051601,0.279073952 L213.433833,66.0387447 L184.003559,78.3957406 L120.624555,37.5457406 C104.033296,30.2499691 91.0848971,27.3833024 81.7793594,28.9457406 C72.4738218,30.5081788 58.3895988,37.9137344 39.5266904,51.1624073 Z" id="Path-6" fill="#FFD500"></path>
                    <g id="Group-2" transform="translate(69.512456, 32.966667)">
                        <g id="eyeball">
                            <ellipse id="Oval" fill="#FFFFFF" cx="15.4401134" cy="13.932" rx="13.3104426" ry="11.868"></ellipse>
                            <ellipse id="Oval" fill="#000000" cx="14.375278" cy="12.384" rx="6.92143016" ry="6.192"></ellipse>
                            <path d="M2.12967082,11.352 L28.750556,9.288 C26.9813384,5.66858128 25.1579919,3.26058128 23.2805166,2.064 C21.4030414,0.867418715 18.3686623,0.179418715 14.1773794,0 C9.84720277,1.47274735 7.00328858,2.84874735 5.64563679,4.128 C4.28798501,5.40725265 3.11599635,7.81525265 2.12967082,11.352 Z" id="Path-3" fill="#FFD500"></path>
                            <path d="M0,11.352 L34.0747331,9.288" id="Path-4" stroke="#000000"></path>
                        </g>
                    </g>
                </g>
                <path d="M82.4105332,123.858133 L78.4340417,111.743563 C78.0142603,110.340052 77.8898061,109.335409 78.0606791,108.729634 C78.231552,108.123858 78.8280396,107.455058 79.8501419,106.723234 C81.1989128,106.134365 82.1839688,105.918204 82.8053102,106.074749 C83.4266515,106.231295 84.2582003,106.905146 85.2999566,108.096303 L92.0156612,119.467115 L82.4105332,123.858133 Z" id="Path" fill="#FFD500" transform="translate(85.001096, 114.941784) rotate(-12.000000) translate(-85.001096, -114.941784) "></path>
                <path d="M126.039992,124.661605 L122.820634,112.513314 C122.48062,111.106091 122.379061,110.099629 122.515957,109.493927 C122.652854,108.888226 123.132585,108.221448 123.955153,107.493596 C125.041099,106.910429 125.834479,106.698692 126.335293,106.858387 C126.836106,107.018081 127.506945,107.696714 128.34781,108.894284 L133.773192,120.310949 L126.039992,124.661605 Z" id="Path" fill="#FFD500" transform="translate(128.115103, 115.734248) rotate(-188.000000) translate(-128.115103, -115.734248) "></path>
                <path d="M245.983053,83.0949379 L242.763694,70.9466473 C242.42368,69.5394244 242.322122,68.5329621 242.459018,67.9272605 C242.595914,67.3215589 243.075646,66.6547817 243.898214,65.9269289 C244.98416,65.3437618 245.77754,65.1320256 246.278353,65.2917202 C246.779166,65.4514148 247.450005,66.1300473 248.29087,67.3276178 L253.716252,78.744282 L245.983053,83.0949379 Z" id="Path" fill="#FFD500" transform="translate(248.058163, 74.167582) rotate(-188.000000) translate(-248.058163, -74.167582) "></path>
                <path d="M254.160989,80.2282712 L250.94163,68.0799806 C250.601616,66.6727577 250.500058,65.6662955 250.636954,65.0605939 C250.77385,64.4548923 251.253582,63.788115 252.076149,63.0602622 C253.162096,62.4770952 253.955476,62.265359 254.456289,62.4250535 C254.957102,62.5847481 255.627941,63.2633807 256.468806,64.4609511 L261.894188,75.8776153 L254.160989,80.2282712 Z" id="Path" fill="#FFD500" transform="translate(256.236099, 71.300915) rotate(-188.000000) translate(-256.236099, -71.300915) "></path>
                <path d="M119.225046,130.394938 L116.005687,118.246647 C115.665673,116.839424 115.564115,115.832962 115.701011,115.227261 C115.837907,114.621559 116.317639,113.954782 117.140206,113.226929 C118.226153,112.643762 119.019533,112.432026 119.520346,112.59172 C120.021159,112.751415 120.691998,113.430047 121.532863,114.627618 L126.958245,126.044282 L119.225046,130.394938 Z" id="Path" fill="#FFD500" transform="translate(121.300156, 121.467582) rotate(-188.000000) translate(-121.300156, -121.467582) "></path>
                <path d="M273.229039,52.1914661 L269.252547,40.0768966 C268.832766,38.6733857 268.708311,37.6687426 268.879184,37.0629672 C269.050057,36.4571918 269.646545,35.7883917 270.668647,35.0565669 C272.017418,34.4676983 273.002474,34.2515369 273.623815,34.4080825 C274.245157,34.5646282 275.076706,35.2384795 276.118462,36.4296365 L282.834167,47.8004482 L273.229039,52.1914661 Z" id="Path" fill="#FFD500" transform="translate(275.819601, 43.275117) rotate(-12.000000) translate(-275.819601, -43.275117) "></path>
                <path d="M69.0874301,126.890327 L64.7245576,113.804935 C64.2639671,112.288945 64.1273171,111.203757 64.3146076,110.549373 C64.5018981,109.894989 65.1559347,109.172453 66.2767174,108.381764 C67.7557694,107.74544 68.8360098,107.511774 69.5174385,107.680766 C70.1988672,107.849759 71.1109083,108.577505 72.2535616,109.864005 L79.6203091,122.145522 L69.0874301,126.890327 Z" id="Path" fill="#FFD500" transform="translate(71.926852, 117.258950) rotate(-12.000000) translate(-71.926852, -117.258950) "></path>
                <path d="M281.967361,43.7256717 L277.604489,30.6402803 C277.143898,29.1242895 277.007248,28.0391022 277.194539,27.3847182 C277.381829,26.7303342 278.035866,26.0077979 279.156649,25.2171093 C280.635701,24.5807848 281.715941,24.3471187 282.39737,24.5161111 C283.078799,24.6851035 283.99084,25.4128498 285.133493,26.69935 L292.50024,38.9808668 L281.967361,43.7256717 Z" id="Path" fill="#FFD500" transform="translate(284.806783, 34.094295) rotate(-12.000000) translate(-284.806783, -34.094295) "></path>
            </g>
        </g>
    </g>
</svg>